<?xml version="1.0" encoding="utf-8"?>
<!-- Generator: Adobe Illustrator 15.0.2, SVG Export Plug-In . SVG Version: 6.00 Build 0)  -->
<!DOCTYPE svg PUBLIC "-//W3C//DTD SVG 1.1//EN" "http://www.w3.org/Graphics/SVG/1.1/DTD/svg11.dtd">
<svg version="1.1" id="Layer_1" xmlns="http://www.w3.org/2000/svg" xmlns:xlink="http://www.w3.org/1999/xlink" x="0px" y="0px"
	 width="50px" height="50px" viewBox="0 0 50 50" enable-background="new 0 0 50 50" xml:space="preserve">
<g>
	<g>
		<g>
			<path fill-rule="evenodd" clip-rule="evenodd" fill="#FFFFFF" d="M39.377,12.29c0.003-0.091,0.02-0.181,0.02-0.272
				c0-6.604-6.036-11.962-13.491-11.962c-7.448,0-13.487,5.358-13.487,11.962c0,0.017,0,0.033,0,0.051
				C5.473,12.557,0.011,17.7,0.011,23.982c0,6.305,5.496,11.453,12.462,11.918v8.442H39.34v-8.658
				c6.106-1.138,10.692-5.94,10.692-11.702C50.032,18.242,45.463,13.447,39.377,12.29z"/>
		</g>
	</g>
	<g>
		<g>
			<rect x="12.581" y="45.226" fill-rule="evenodd" clip-rule="evenodd" fill="#FFFFFF" width="26.657" height="4.742"/>
		</g>
	</g>
</g>
</svg>
