<?xml version="1.0" encoding="utf-8"?>
<!-- Generator: Adobe Illustrator 15.0.2, SVG Export Plug-In . SVG Version: 6.00 Build 0)  -->
<!DOCTYPE svg PUBLIC "-//W3C//DTD SVG 1.1//EN" "http://www.w3.org/Graphics/SVG/1.1/DTD/svg11.dtd">
<svg version="1.1" id="Layer_1" xmlns="http://www.w3.org/2000/svg" xmlns:xlink="http://www.w3.org/1999/xlink" x="0px" y="0px"
	 width="50px" height="50px" viewBox="0 0 50 50" enable-background="new 0 0 50 50" xml:space="preserve">
<g>
	
		<rect x="33.847" y="19.903" transform="matrix(-0.7099 -0.7044 0.7044 -0.7099 41.5082 66.15)" fill="#FFFFFF" width="1.065" height="9.246"/>
	
		<rect x="26.736" y="20.974" transform="matrix(0.7069 -0.7073 0.7073 0.7069 -6.0205 28.4833)" fill="#FFFFFF" width="9.247" height="1.065"/>
	
		<rect x="28.247" y="22.482" transform="matrix(0.707 -0.7072 0.7072 0.707 -6.6464 29.9898)" fill="#FFFFFF" width="9.246" height="1.068"/>
	<path fill="#FFFFFF" d="M39.135,15.633c0.043-0.447,0.066-0.899,0.066-1.358c0-7.881-6.393-14.277-14.277-14.277
		c-7.842,0-14.203,6.323-14.274,14.148c-3.841,1.896-6.484,5.847-6.484,10.42c0,4.833,2.949,8.973,7.146,10.727v14.709h28.551
		V36.303c4.082-1.592,6.971-5.561,6.971-10.205C46.834,21.179,43.596,17.018,39.135,15.633z M36.582,26.471
		c-2.688,2.688-6.115,3.752-8.287,2.742l-0.42,0.418l1.289,1.293l0.441-0.441l6.932,6.932l-3.145,3.143l-6.93-6.93l0.439-0.441
		l-1.287-1.287l-0.672,0.672l0.699,0.693l-7.499,7.498l-3.02-3.02l7.498-7.496l0.697,0.699l0.67-0.674l-3.124-3.121
		c-1.723,1.723-3.017,1.51-3.017,1.51l-6.542-6.543l6.792-6.789l6.54,6.538c0,0,0.332,1.179-1.509,3.02l3.125,3.126l0.42-0.422
		c-1.006-2.17,0.055-5.597,2.738-8.284c3.125-3.126,7.266-4.053,9.244-2.074C40.635,19.209,39.707,23.348,36.582,26.471z"/>
</g>
</svg>
